<mxfile host="app.diagrams.net" modified="2023-06-11T06:25:00.264Z" agent="Mozilla/5.0 (Macintosh; Intel Mac OS X 10_14_6) AppleWebKit/605.1.15 (KHTML, like Gecko) EdgiOS/114 Version/13.0.3 Safari/605.1.15" version="21.3.8" etag="V6SeZ8K-2GBqohZiKk9T" type="github">
  <diagram name="第 1 页" id="t4DPHbw8UTjpKWFca38w">
    <mxGraphModel>
      <root>
        <mxCell id="0" />
        <mxCell id="1" parent="0" />
      </root>
    </mxGraphModel>
  </diagram>
</mxfile>
